<svg id="Layer_1" data-name="Layer 1" xmlns="http://www.w3.org/2000/svg" viewBox="10.00 10.00 180.00 180.00" width="180"><defs><style>.cls-1{fill:#fdbccb;}.cls-2{fill:#fff;}</style></defs><circle class="cls-1" cx="100" cy="100" r="90"></circle><rect class="cls-2" x="166" y="55" width="5" height="5"></rect><rect class="cls-2" x="76.43" y="76.16" width="9.48" height="9.48"></rect><path class="cls-2" d="M181,37H121a2,2,0,0,0-2,2V56H58.28a2,2,0,0,0-2,2V98H28a2,2,0,0,0-2,2v25a2,2,0,0,0,2,2H56.28v14.73a2,2,0,0,0,2,2H119V157a2,2,0,0,0,2,2h49a2,2,0,0,0,2-2V131a2,2,0,0,0-2-2H144V71h37a2,2,0,0,0,2-2V39A2,2,0,0,0,181,37ZM41,118a1,1,0,0,1-1,1H34a1,1,0,0,1-1-1v-5a1,1,0,0,1,1-1h6a1,1,0,0,1,1,1Zm12,0a1,1,0,0,1-1,1H46a1,1,0,0,1-1-1v-5a1,1,0,0,1,1-1h6a1,1,0,0,1,1,1ZM68.14,68.86a1,1,0,0,1,1-1H93.21a1,1,0,0,1,1,1V92.94a1,1,0,0,1-1,1H69.14a1,1,0,0,1-1-1ZM65,118a1,1,0,0,1-1,1H58a1,1,0,0,1-1-1v-5a1,1,0,0,1,1-1h6a1,1,0,0,1,1,1Zm30.21,12.87a2,2,0,0,1-2,2H69.14a2,2,0,0,1-2-2V127h2v3.87H93.21V106.79H72v-2H93.21a2,2,0,0,1,2,2Zm11.86-35.93a2,2,0,0,1-2-2V68.86a2,2,0,0,1,2-2H119v2H107.07V92.94h24.08V71h2V92.94a2,2,0,0,1-2,2Zm18,29.82h7.11V129h-7.11ZM163,143a1,1,0,0,1,1,1v5a1,1,0,0,1-1,1H128a1,1,0,0,1-1-1v-5a1,1,0,0,1,1-1Zm12-80a1,1,0,0,1-1,1H163a1,1,0,0,1-1-1V52a1,1,0,0,1,1-1h11a1,1,0,0,1,1,1Z"></path><rect x="106.07" y="124.76" width="7.11" height="7.11"></rect><rect x="125.03" y="105.79" width="7.11" height="7.11"></rect><rect x="106.07" y="105.79" width="7.11" height="7.11"></rect><rect x="115.55" y="77.34" width="7.11" height="7.11"></rect><rect x="77.62" y="115.27" width="7.11" height="7.11"></rect><rect x="115.62" y="115.27" width="7.11" height="7.11"></rect><path d="M170,128H121a3,3,0,0,0-3,3v26a3,3,0,0,0,3,3h49a3,3,0,0,0,3-3V131A3,3,0,0,0,170,128Zm1,29a1,1,0,0,1-1,1H121a1,1,0,0,1-1-1V131a1,1,0,0,1,1-1h49a1,1,0,0,1,1,1Z"></path><rect x="127" y="137" width="11" height="2"></rect><path d="M70,97H28a3,3,0,0,0-3,3v25a3,3,0,0,0,3,3H70a3,3,0,0,0,3-3V100A3,3,0,0,0,70,97Zm1,28a1,1,0,0,1-1,1H28a1,1,0,0,1-1-1V100a1,1,0,0,1,1-1H70a1,1,0,0,1,1,1Z"></path><path d="M40,111H34a2,2,0,0,0-2,2v5a2,2,0,0,0,2,2h6a2,2,0,0,0,2-2v-5A2,2,0,0,0,40,111Zm-6,7v-5h6v5Z"></path><rect x="32" y="106" width="11" height="2"></rect><path d="M181,36H121a3,3,0,0,0-3,3V69a3,3,0,0,0,3,3h60a3,3,0,0,0,3-3V39A3,3,0,0,0,181,36Zm1,33a1,1,0,0,1-1,1H121a1,1,0,0,1-1-1V39a1,1,0,0,1,1-1h60a1,1,0,0,1,1,1Z"></path><rect x="127" y="52" width="3" height="3"></rect><rect x="131" y="56" width="3" height="3"></rect><rect x="135" y="52" width="3" height="3"></rect><rect x="127" y="60" width="3" height="3"></rect><rect x="135" y="60" width="3" height="3"></rect><rect x="127" y="45" width="11" height="2"></rect><path d="M155,51h-9a2,2,0,0,0-2,2v9a2,2,0,0,0,2,2h9a2,2,0,0,0,2-2V53A2,2,0,0,0,155,51Zm-9,11V53h9v9Z"></path><rect x="149" y="56" width="3" height="3"></rect></svg>