<svg id="Layer_1" data-name="Layer 1" xmlns="http://www.w3.org/2000/svg" viewBox="10.00 10.00 180.00 180.00" width="180"><defs><style>.cls-1{fill:#fddf37;}.cls-2{fill:#fff;}</style></defs><circle class="cls-1" cx="100" cy="100" r="90"></circle><path class="cls-2" d="M144,109.49V57a2,2,0,0,0-2-2H57.3a2,2,0,0,0-2,2V141.7a2,2,0,0,0,2,2h57.2A26,26,0,1,0,144,109.49ZM132,110a25.79,25.79,0,0,0-8.39,4.09v-.32H114v9.59h1.76a25.87,25.87,0,0,0-2.58,8.39h-6.57a1,1,0,0,1-1-1V106.34a1,1,0,0,1,1-1H131a1,1,0,0,1,1,1Z"></path><rect x="67.29" y="66.98" width="7.19" height="7.19"></rect><rect x="76.88" y="76.57" width="7.19" height="7.19"></rect><rect x="86.46" y="66.98" width="7.19" height="7.19"></rect><rect x="67.29" y="86.16" width="7.19" height="7.19"></rect><rect x="86.46" y="86.16" width="7.19" height="7.19"></rect><path d="M133,92.35V68a2,2,0,0,0-2-2H106.64a2,2,0,0,0-2,2V92.35a2,2,0,0,0,2,2H131A2,2,0,0,0,133,92.35ZM106.64,68H131V92.35H106.64Z"></path><path d="M92.66,104.34H68.29a2,2,0,0,0-2,2v24.37a2,2,0,0,0,2,2H92.66a2,2,0,0,0,2-2V106.34A2,2,0,0,0,92.66,104.34ZM68.29,130.71V106.34H92.66v24.37Z"></path><rect x="76.88" y="114.93" width="7.19" height="7.19"></rect><path d="M139,108a27,27,0,1,0,27,27A27,27,0,0,0,139,108Zm0,52a25,25,0,1,1,25-25A25,25,0,0,1,139,160Z"></path><rect x="115.23" y="76.57" width="7.19" height="7.19"></rect><path d="M138.29,137.71a1,1,0,0,0,.33.21.94.94,0,0,0,.76,0,1,1,0,0,0,.33-.21l4-4a1,1,0,0,0-1.42-1.42l-2.29,2.3V126a1,1,0,0,0-2,0v8.59l-2.29-2.3a1,1,0,0,0-1.42,1.42Z"></path><path d="M147,137a1,1,0,0,0-1,1v3H132v-3a1,1,0,0,0-2,0v4a1,1,0,0,0,1,1h16a1,1,0,0,0,1-1v-4A1,1,0,0,0,147,137Z"></path></svg>