<svg id="Layer_1" data-name="Layer 1" xmlns="http://www.w3.org/2000/svg" viewBox="10 10 180 180" width="180"><defs><style>.cls-1{fill:#759dfe;}.cls-2{fill:#fff;}</style></defs><circle class="cls-1" cx="100" cy="100" r="90"></circle><rect class="cls-2" x="65" y="59" width="9" height="9"></rect><path class="cls-2" d="M59,77h85a2,2,0,0,0,2-2V52a2,2,0,0,0-2-2H59a2,2,0,0,0-2,2V75A2,2,0,0,0,59,77Zm4-18a2,2,0,0,1,2-2h9a2,2,0,0,1,2,2v9a2,2,0,0,1-2,2H65a2,2,0,0,1-2-2Z"></path><rect class="cls-2" x="65" y="129" width="9" height="9"></rect><path class="cls-2" d="M179.82,151.9l-11.77-25.43c-2.05-4.47-5.89-8-13.41-5l-8.64,3V122a2,2,0,0,0-2-2h-8l-3-5H148a2,2,0,0,0,2-2V84a2,2,0,0,0-2-2H55a2,2,0,0,0-2,2v29a2,2,0,0,0,2,2h67.52a4.71,4.71,0,0,0,.66,2.39l1.56,2.61H59a2,2,0,0,0-2,2v23a2,2,0,0,0,2,2h73.62c.09,2.42.63,5.11,3.3,6.82l15.91,8,5.37,4a3.9,3.9,0,0,0,5.32,1.34l16-9.94A3.88,3.88,0,0,0,179.82,151.9ZM76,138a2,2,0,0,1-2,2H65a2,2,0,0,1-2-2v-9a2,2,0,0,1,2-2h9a2,2,0,0,1,2,2Z"></path><path d="M121.57,114H55a1,1,0,0,1-1-1V84a1,1,0,0,1,1-1h93a1,1,0,0,1,1,1v29a1,1,0,0,1-1,1H133.61l1.2,2H148a3,3,0,0,0,3-3V84a3,3,0,0,0-3-3H55a3,3,0,0,0-3,3v29a3,3,0,0,0,3,3h66.6A5.83,5.83,0,0,1,121.57,114Z"></path><path d="M180.71,151.44,169,126.05c-2.87-6.24-7.93-8.16-14.66-5.55l-13.9,4.85-8-13.45a5.85,5.85,0,0,0-10,6l11.93,19.95c-2.76,1.76-2.64,6.48-2.64,6.64v.56c-.05,2.84-.11,7.13,3.78,9.61l.09.05,15.82,7.94,5.15,3.86A4.87,4.87,0,0,0,163,168l16-9.93a4.87,4.87,0,0,0,2.22-3A4.82,4.82,0,0,0,180.71,151.44Zm-1.43,3.15a2.87,2.87,0,0,1-1.32,1.78l-16,9.93a2.88,2.88,0,0,1-3.94-1,1.2,1.2,0,0,0-.26-.29l-5.37-4-.15-.1-15.86-8c-2.9-1.89-2.85-5.21-2.81-7.87v-.61c0-1.05.23-3.91,1.67-4.89l6.44,10.77a1,1,0,0,0,.86.49,1,1,0,0,0,.51-.14,1,1,0,0,0,.35-1.38l-7-11.64L124,116.87a3.86,3.86,0,0,1,1.33-5.27,3.84,3.84,0,0,1,2.91-.42,3.78,3.78,0,0,1,2.36,1.75l7.47,12.49s0,.07,0,.11l.59.93.36.61.06.07,4,6.39a1,1,0,0,0,1.38.32,1,1,0,0,0,.32-1.38l-3.37-5.38,6-2.09,3.71,5.55a1,1,0,0,0,.83.45.94.94,0,0,0,.55-.17,1,1,0,0,0,.28-1.38l-3.42-5.13,5.56-1.94h0l.56-.21,3.6,5.39a1,1,0,0,0,.83.45.94.94,0,0,0,.55-.17,1,1,0,0,0,.28-1.38l-3.23-4.86c4.37-.89,7.5.85,9.54,5.3l11.78,25.43.05.1A2.83,2.83,0,0,1,179.28,154.59Z"></path><rect x="68" y="132" width="3" height="3"></rect><rect x="82" y="130" width="25" height="2"></rect><rect x="82" y="135" width="11" height="2"></rect><path d="M74,92H65a2,2,0,0,0-2,2v9a2,2,0,0,0,2,2h9a2,2,0,0,0,2-2V94A2,2,0,0,0,74,92Zm-9,11V94h9v9Z"></path><rect x="68" y="97" width="3" height="3"></rect><rect x="82" y="95" width="25" height="2"></rect><rect x="82" y="100" width="11" height="2"></rect><rect x="68" y="62" width="3" height="3"></rect><rect x="82" y="60" width="25" height="2"></rect><rect x="82" y="65" width="11" height="2"></rect><rect x="153.55" y="73.5" width="9.9" height="2" transform="translate(-6.26 133.9) rotate(-45)"></rect><rect x="158" y="82" width="8" height="2"></rect><rect x="149" y="67" width="2" height="8"></rect></svg>